<svg width="21" height="22" viewBox="0 0 21 22" fill="none" xmlns="http://www.w3.org/2000/svg">
<g id="Vector">
<path id="Vector_2" d="M12.9208 15.41C12.9208 15.41 14.6625 14.4129 15.1184 14.1733C15.5731 13.9328 16.0441 13.8722 16.3301 14.0468C16.7633 14.3118 20.4006 16.7314 20.7069 16.9456C21.0131 17.1603 21.1607 17.7733 20.7396 18.3738C20.3202 18.9743 18.3854 21.3487 17.5655 21.3233C16.7444 21.2967 13.3303 21.2218 6.89232 14.782C0.455618 8.34429 0.379482 4.9293 0.353243 4.10813C0.327004 3.2874 2.70141 1.35214 3.30189 0.932307C3.90324 0.512907 4.51705 0.670774 4.73041 0.965859C4.97301 1.30181 7.36462 4.92758 7.62787 5.34311C7.8081 5.62701 7.74186 6.10061 7.50141 6.55571C7.26224 7.01167 6.26517 8.75337 6.26517 8.75337C6.26517 8.75337 6.96802 9.9522 9.34501 12.3288C11.7224 14.7058 12.9208 15.41 12.9208 15.41Z" fill="#F8FAFF"/>
</g>
</svg>
