<svg width="25" height="26" viewBox="0 0 25 26" fill="none" xmlns="http://www.w3.org/2000/svg">
<g id="Group">
<path id="Vector" fill-rule="evenodd" clip-rule="evenodd" d="M20.9067 4.29143C18.6095 1.99164 15.5547 0.72457 12.2999 0.723236C5.59362 0.723236 0.135416 6.181 0.132799 12.8893C0.13186 15.0338 0.692127 17.1269 1.7569 18.972L0.0307617 25.2768L6.48069 23.5849C8.2578 24.5542 10.2587 25.0652 12.295 25.0658H12.3C12.2996 25.0658 12.3004 25.0658 12.3 25.0658C19.0055 25.0658 24.4642 19.6075 24.467 12.8991C24.4682 9.64799 23.2038 6.59112 20.9067 4.29143ZM12.2999 23.011H12.2958C10.4813 23.0103 8.70146 22.5228 7.14878 21.6014L6.77955 21.3823L2.95206 22.3863L3.97372 18.6545L3.73324 18.2719C2.72097 16.6618 2.18634 14.8008 2.18713 12.89C2.1893 7.31432 6.72596 2.77816 12.304 2.77816C15.0051 2.779 17.5442 3.83231 19.4536 5.74381C21.3628 7.6553 22.4137 10.1961 22.4126 12.8982C22.4104 18.4744 17.8739 23.011 12.2999 23.011Z" fill="#F8FAFF"/>
<path id="Vector_2" fill-rule="evenodd" clip-rule="evenodd" d="M17.8471 15.4371C17.5431 15.2849 16.0484 14.5496 15.7697 14.448C15.4911 14.3466 15.2884 14.2959 15.0857 14.6002C14.8831 14.9045 14.3005 15.5893 14.1231 15.7923C13.9458 15.995 13.7684 16.0206 13.4645 15.8683C13.1605 15.7161 12.1809 15.3951 11.0197 14.3594C10.1159 13.5532 9.5058 12.5577 9.32839 12.2533C9.15109 11.949 9.30953 11.7845 9.46174 11.6329C9.5985 11.4966 9.76578 11.2778 9.9178 11.1003C10.0698 10.9228 10.1204 10.7959 10.2218 10.5931C10.3231 10.3902 10.2725 10.2127 10.1965 10.0605C10.1204 9.90837 9.51246 8.41199 9.25915 7.80317C9.0123 7.21046 8.76171 7.29076 8.57507 7.28133C8.39801 7.27249 8.19507 7.27066 7.99242 7.27066C7.78978 7.27066 7.46036 7.34677 7.18176 7.65105C6.90311 7.95544 6.11768 8.69098 6.11768 10.1872C6.11768 11.6837 7.20704 13.1293 7.35906 13.3321C7.51103 13.5351 9.50278 16.6057 12.5524 17.9225C13.2778 18.2358 13.8441 18.4229 14.2855 18.5629C15.0138 18.7944 15.6766 18.7617 16.2004 18.6834C16.7845 18.5961 17.9991 17.948 18.2524 17.2379C18.5058 16.5277 18.5058 15.9189 18.4297 15.7922C18.3538 15.6654 18.1511 15.5893 17.8471 15.4371Z" fill="#F8FAFF"/>
</g>
</svg>
